<svg xmlns="http://www.w3.org/2000/svg" xmlns:xlink="http://www.w3.org/1999/xlink" width="1080" zoomAndPan="magnify" viewBox="0 0 810 809.999993" height="1080" preserveAspectRatio="xMidYMid meet" version="1.0"><path fill="#bed635" d="M 459 327.957031 C 459 329.726562 458.914062 331.488281 458.738281 333.25 C 458.566406 335.011719 458.308594 336.757812 457.960938 338.492188 C 457.617188 340.226562 457.1875 341.941406 456.675781 343.632812 C 456.160156 345.324219 455.566406 346.988281 454.890625 348.621094 C 454.210938 350.253906 453.457031 351.851562 452.625 353.414062 C 451.789062 354.972656 450.882812 356.488281 449.898438 357.957031 C 448.917969 359.429688 447.863281 360.847656 446.742188 362.214844 C 445.621094 363.582031 444.433594 364.890625 443.183594 366.140625 C 441.933594 367.390625 440.625 368.578125 439.257812 369.699219 C 437.890625 370.820312 436.472656 371.875 435 372.855469 C 433.53125 373.839844 432.015625 374.746094 430.457031 375.582031 C 428.894531 376.414062 427.296875 377.167969 425.664062 377.847656 C 424.03125 378.523438 422.367188 379.117188 420.675781 379.632812 C 418.984375 380.144531 417.269531 380.574219 415.535156 380.917969 C 413.800781 381.265625 412.054688 381.523438 410.292969 381.695312 C 408.53125 381.871094 406.769531 381.957031 405 381.957031 C 403.230469 381.957031 401.46875 381.871094 399.707031 381.695312 C 397.945312 381.523438 396.199219 381.265625 394.464844 380.917969 C 392.730469 380.574219 391.015625 380.144531 389.324219 379.632812 C 387.632812 379.117188 385.96875 378.523438 384.335938 377.847656 C 382.699219 377.167969 381.105469 376.414062 379.542969 375.582031 C 377.984375 374.746094 376.46875 373.839844 375 372.855469 C 373.527344 371.875 372.109375 370.820312 370.742188 369.699219 C 369.375 368.578125 368.066406 367.390625 366.816406 366.140625 C 365.566406 364.890625 364.378906 363.582031 363.257812 362.214844 C 362.136719 360.847656 361.082031 359.429688 360.101562 357.957031 C 359.117188 356.488281 358.210938 354.972656 357.375 353.414062 C 356.542969 351.851562 355.789062 350.253906 355.109375 348.621094 C 354.433594 346.988281 353.839844 345.324219 353.324219 343.632812 C 352.8125 341.941406 352.382812 340.226562 352.039062 338.492188 C 351.691406 336.757812 351.433594 335.011719 351.261719 333.25 C 351.085938 331.488281 351 329.726562 351 327.957031 C 351 326.1875 351.085938 324.425781 351.261719 322.664062 C 351.433594 320.902344 351.691406 319.15625 352.039062 317.421875 C 352.382812 315.6875 352.8125 313.972656 353.324219 312.28125 C 353.839844 310.589844 354.433594 308.925781 355.109375 307.292969 C 355.789062 305.65625 356.542969 304.0625 357.375 302.5 C 358.210938 300.941406 359.117188 299.425781 360.101562 297.957031 C 361.082031 296.484375 362.136719 295.066406 363.257812 293.699219 C 364.378906 292.332031 365.566406 291.023438 366.816406 289.773438 C 368.066406 288.523438 369.375 287.335938 370.742188 286.214844 C 372.109375 285.09375 373.527344 284.039062 375 283.058594 C 376.46875 282.074219 377.984375 281.167969 379.542969 280.332031 C 381.105469 279.5 382.699219 278.746094 384.335938 278.066406 C 385.96875 277.390625 387.632812 276.796875 389.324219 276.28125 C 391.015625 275.769531 392.730469 275.339844 394.464844 274.996094 C 396.199219 274.648438 397.945312 274.390625 399.707031 274.21875 C 401.46875 274.042969 403.230469 273.957031 405 273.957031 C 406.769531 273.957031 408.53125 274.042969 410.292969 274.21875 C 412.054688 274.390625 413.800781 274.648438 415.535156 274.996094 C 417.269531 275.339844 418.984375 275.769531 420.675781 276.28125 C 422.367188 276.796875 424.03125 277.390625 425.664062 278.066406 C 427.296875 278.746094 428.894531 279.5 430.457031 280.332031 C 432.015625 281.167969 433.53125 282.074219 435 283.058594 C 436.472656 284.039062 437.890625 285.09375 439.257812 286.214844 C 440.625 287.335938 441.933594 288.523438 443.183594 289.773438 C 444.433594 291.023438 445.621094 292.332031 446.742188 293.699219 C 447.863281 295.066406 448.917969 296.484375 449.898438 297.957031 C 450.882812 299.425781 451.789062 300.941406 452.625 302.5 C 453.457031 304.0625 454.210938 305.65625 454.890625 307.292969 C 455.566406 308.925781 456.160156 310.589844 456.675781 312.28125 C 457.1875 313.972656 457.617188 315.6875 457.960938 317.421875 C 458.308594 319.15625 458.566406 320.902344 458.738281 322.664062 C 458.914062 324.425781 459 326.1875 459 327.957031 Z M 459 327.957031 " fill-opacity="1" fill-rule="nonzero"/><path fill="#bed635" d="M 513 503.457031 L 513 449.457031 C 513 441.355469 508.949219 433.257812 502.199219 427.855469 C 487.351562 415.707031 468.449219 407.605469 449.550781 402.207031 C 436.050781 398.15625 421.199219 395.457031 405 395.457031 C 390.148438 395.457031 375.300781 398.15625 360.449219 402.207031 C 341.550781 407.605469 322.648438 417.058594 307.800781 427.855469 C 301.050781 433.257812 297 441.355469 297 449.457031 L 297 503.457031 Z M 513 503.457031 " fill-opacity="1" fill-rule="nonzero"/></svg>