<svg xmlns="http://www.w3.org/2000/svg" version="1.1" width="32" height="32" viewBox="0 0 32 32">
<title>transmission-2</title>
<path d="M7.704 5.333c-1.309 0-2.37 1.061-2.37 2.37 0.001 0.846 0.452 1.628 1.185 2.051v4.861c-0.021 0.128-0.021 0.259 0 0.387v4.875c-0.732 0.423-1.184 1.203-1.185 2.049 0 1.309 1.061 2.37 2.37 2.37s2.37-1.061 2.37-2.37c-0.001-0.846-0.452-1.628-1.185-2.051v-3.875h5.926v3.875c-0.733 0.423-1.185 1.205-1.185 2.051 0 1.309 1.061 2.37 2.37 2.37s2.37-1.061 2.37-2.37c-0.002-0.845-0.453-1.626-1.185-2.049v-3.877h5.926v6.248c-0.732 0.423-1.184 1.203-1.185 2.049 0 1.309 1.061 2.37 2.37 2.37s2.37-1.061 2.37-2.37c-0.001-0.846-0.452-1.628-1.185-2.051v-7.231c0.021-0.128 0.021-0.259 0-0.387v-4.875c0.732-0.423 1.184-1.203 1.185-2.049 0-1.309-1.061-2.371-2.37-2.371s-2.37 1.061-2.37 2.37c0.001 0.846 0.452 1.628 1.185 2.051v3.875h-5.926v-3.877c0.732-0.423 1.184-1.203 1.185-2.049 0-1.309-1.061-2.37-2.37-2.37s-2.37 1.061-2.37 2.37c0.001 0.846 0.452 1.628 1.185 2.051v3.875h-5.926v-3.877c0.732-0.423 1.184-1.203 1.185-2.049 0-1.309-1.061-2.37-2.37-2.37z" fill="#bed635"/>
</svg>